# xmcd
#
# Track frame offsets: 
#        183
#        15033
#        31983
#        43908
#        63068
#        76683
#        93258
#        106420
#        119763
#        141483
#        154983
#        167733
#        181158
#
# Disc length: 2588 seconds
#
# Revision: 0
# Processed by: cddbd v1.5.2PL0 Copyright (c) Steve Scherf et al.
# Submitted via: ExactAudioCopyFreeDBPlugin 1.0
#
DISCID=9e0a1a0d
DTITLE=Dave Peabody - Dream Of Mississippi
DYEAR=1900
DGENRE=Blues
TTITLE0=Dream Of Mississippi
TTITLE1=Rambling On My Mind
TTITLE2=Jumper Hanging On The Line
TTITLE3=Delta Blues
TTITLE4=Street Walkin'
TTITLE5=Wind Howling Blues
TTITLE6=Old Jim Canan's
TTITLE7=Please Throw The Poor Dog A Bone
TTITLE8=Mary, Ain't I Been One Good Man To You
TTITLE9=Mississippi Blues
TTITLE10=Mortgage Blues
TTITLE11=Take A Walk Around The Corner
TTITLE12=I'm Going Home
EXTD=
EXTT0=
EXTT1=
EXTT2=
EXTT3=
EXTT4=
EXTT5=
EXTT6=
EXTT7=
EXTT8=
EXTT9=
EXTT10=
EXTT11=
EXTT12=
PLAYORDER=
